<svg width="197" height="105" viewBox="0 0 197 105" fill="none" xmlns="http://www.w3.org/2000/svg">
<path d="M22.6163 2.90803C20.3803 1.10078 17.5169 0.0651245 14.163 0.0651245C5.61373 0.0651245 5.13706 0.270885 3.42926 0.270885C1.85863 0.270885 0.490337 1.43342 0.490337 3.35727V25.226C0.490337 27.7191 0.315442 34.2999 0.17484 39.5365C0.0891077 42.9212 0.0170898 45.7436 0.0170898 46.5494C0.0170898 47.7771 0.833266 49.1454 3.4464 49.1454C5.97723 49.1454 10.281 48.9397 11.1006 48.9397C11.9888 48.9397 12.0608 47.225 11.7865 45.1674C11.6596 44.0323 11.5602 39.8829 11.5019 36.625C11.4607 34.5983 11.4401 32.9179 11.4401 32.5098C11.4401 31.3542 12.4689 30.7952 13.3537 30.7952C19.0258 30.7952 28.0483 28.6107 28.0483 15.7611C28.0311 10.3153 26.073 5.69263 22.6163 2.90803ZM11.3578 22.2768C9.16992 22.2768 9.23851 20.7027 9.23851 19.1287C9.23851 18.2919 9.3894 15.9566 9.51971 14.0602C9.62602 12.5615 9.72205 11.3407 9.72205 11.3407C9.72205 9.96898 10.065 7.92854 11.4367 7.92854C13.1877 7.88514 14.9259 8.23677 16.5224 8.95734C18.7823 10.0444 20.1814 12.0437 20.1814 14.9792C20.1677 19.0635 17.1637 22.2768 11.3578 22.2768Z" fill="white"/>
<path d="M58.8057 10.7954H55.9388C53.8812 10.7954 53.7509 14.1424 53.7509 15.4456C53.7509 18.532 52.8593 24.3961 52.8593 27.263C52.8637 28.5447 52.7233 29.8228 52.4409 31.073C51.779 33.9261 50.277 36.4398 47.6021 37.3555C46.8538 37.6053 46.0693 37.7292 45.2805 37.7224C39.5364 37.7224 39.3992 33.7581 39.3992 31.433C39.3992 29.108 39.1317 25.9701 39.4644 23.3742C39.6976 21.7384 39.6358 17.342 39.6118 14.4579C39.6118 13.9538 39.6118 13.4977 39.6118 13.1102C39.6118 11.5362 38.4527 10.1027 35.8567 10.1027C32.983 10.2399 31.5461 9.96898 31.5461 12.2872C31.5461 15.0306 31.2032 19.8111 30.9048 24.5607C30.6339 28.6759 30.3801 32.791 30.3801 35.5345C30.3801 39.4508 32.256 44.4884 39.9102 44.9377C40.2771 44.9617 40.6543 44.972 41.0487 44.972C49.6529 44.972 52.2591 41.5427 52.6638 42.7806C53.4834 45.1023 52.3894 48.7957 47.609 48.7957C44.6015 48.7957 36.9473 48.5247 35.4418 48.5247C35.3081 48.5247 35.1777 48.5247 35.0406 48.5247C33.8917 48.5556 32.6846 48.7854 32.472 50.1194C32.4467 50.2655 32.434 50.4135 32.4343 50.5617C32.4343 52.3415 32.4343 55.2085 32.5783 56.4396C32.8458 57.6741 32.983 58.3566 34.6188 58.3566C36.2545 58.3566 48.5658 57.945 52.5198 57.5335C56.3537 57.122 58.2639 53.8402 58.2639 51.1138C58.2639 48.5179 59.0903 37.8527 59.0903 35.123C59.0903 33.2952 59.759 23.724 60.1637 17.7569C60.3317 15.2261 60.4483 13.3434 60.4483 12.9765C60.4415 11.7522 60.174 10.7954 58.8057 10.7954Z" fill="white"/>
<path d="M84.5534 42.7086C80.7811 42.7086 79.0185 39.9652 79.0185 37.7224C79.0185 35.4796 79.6357 30.5449 79.6357 29.1766C79.6357 27.8083 79.6357 24.9414 80.5239 24.9414H84.5534C85.9251 24.9414 85.7811 22.6883 85.7811 21.32C85.7811 20.0203 84.5534 19.6808 82.6398 19.6808C80.5239 19.6808 79.6357 18.652 79.6357 17.4243V10.5108C79.6357 9.4203 78.7441 8.052 77.7873 8.052H72.9246C71.6969 8.052 71.2099 9.14253 71.2099 11.399C71.2099 11.399 71.5529 15.5142 71.5529 17.0128C71.5529 18.652 70.6715 19.2693 69.2998 19.2693H67.0605C65.6887 19.2693 63.6483 19.5402 63.6483 20.4318C63.6483 21.0491 63.4391 21.8035 63.4391 23.2987C63.4391 24.6704 63.1648 25.5586 64.9411 25.5586H67.1976C69.4473 25.5586 70.2086 25.5586 70.2086 26.7863C70.2086 28.086 69.725 34.5743 69.725 39.0187C69.725 39.2382 69.725 39.4508 69.7422 39.6634C70.1263 46.6832 76.7791 50.2257 84.0013 50.2257C84.3515 50.2296 84.6975 50.1483 85.0093 49.9888C85.3212 49.8293 85.5896 49.5964 85.7914 49.3101C86 49.0274 86.1461 48.7036 86.22 48.3601C86.2476 48.2316 86.2626 48.1006 86.2646 47.9692V44.9685C86.2646 44.0769 86.4018 42.7086 84.5534 42.7086Z" fill="white"/>
<path d="M118.565 26.1759C118.565 22.1156 117.362 19.2453 115.589 17.3386C114.635 16.3373 113.486 15.5431 112.212 15.0056C110.938 14.4681 109.567 14.1988 108.185 14.2145C102.304 14.2145 98.9567 16.615 98.2022 18.652C97.8593 19.5882 97.2557 19.7734 97.0911 18.995C97.0598 18.838 97.0449 18.6783 97.0465 18.5183C97.0465 16.399 96.9059 12.8462 96.9059 11.207V2.45538C96.9059 1.08365 96.4944 0 95.9526 0C95.4108 0 91.8545 0.13717 91.0281 0.13717C91.0281 0.13717 89.2551 -0.274353 89.2551 1.91012C89.2551 4.78045 89.8038 17.2186 89.8038 21.0491L89.7455 39.9652V45.579C89.7455 48.3224 90.4314 48.8574 91.251 48.8574H97.5369C98.6274 48.8574 99.4539 47.9006 99.4539 46.5358C99.4539 45.0337 99.7968 41.1346 99.7968 34.3034C99.7968 27.6094 103.226 23.5045 105.815 23.5045C109.245 23.5045 110.616 26.656 111.021 31.1347C111.11 32.1635 111.151 33.2815 111.151 34.4406C111.151 37.3109 111.282 43.1888 110.87 45.5104C110.596 47.6949 111.007 49.4747 111.69 49.4747H117.156C118.528 49.4747 118.799 48.3807 118.799 45.5104C118.775 42.5029 118.565 31.92 118.565 26.1759Z" fill="white"/>
<path d="M148.88 22.8941C148.884 22.0771 148.838 21.2605 148.743 20.449C147.629 10.6652 139.741 10.2502 137.334 10.2502C136.916 10.2502 136.511 10.2502 136.117 10.2502C133.095 10.2948 130.53 10.5932 128.723 12.1535C123.459 16.3167 122.574 25.6136 122.574 33.3364C122.574 35.8638 122.766 38.6278 123.548 41.1449C124.886 45.4624 127.934 49.0632 134.666 49.5433C135.173 49.581 135.695 49.5982 136.237 49.5982C149.628 49.6085 148.88 35.1265 148.88 22.8941ZM137.78 41.5221C137.354 41.9698 136.837 42.3206 136.263 42.5508C135.69 42.781 135.074 42.8851 134.457 42.8561C128.311 42.8561 128.86 34.9996 128.579 33.0895C128.357 30.9851 128.407 28.861 128.726 26.7692C129.045 24.8385 129.666 22.8975 130.829 21.5738C131.294 21.0326 131.874 20.6019 132.526 20.313C133.179 20.0241 133.887 19.8843 134.601 19.9038C137.197 19.9038 139.933 20.449 139.933 26.1931C139.933 30.0442 140.115 34.1628 139.549 37.3418C139.23 39.0702 138.695 40.5276 137.78 41.5221Z" fill="white"/>
<path d="M186.287 43.7238C186.188 39.0702 185.831 28.9263 185.831 23.9847C185.833 23.2274 185.781 22.471 185.673 21.7213C185.239 18.49 183.641 15.528 181.179 13.3908C178.717 11.2537 175.559 10.0883 172.299 10.1131C165.132 10.1131 161.983 15.3703 160.752 18.3778C160.409 19.2042 159.724 19.3345 159.868 17.9662C160.039 16.0372 160.106 14.1002 160.066 12.1639C160.066 10.7921 159.662 9.7016 159.117 9.7016C159.017 9.7016 158.846 9.7016 158.626 9.7016C157.615 9.73246 155.54 9.82506 154.875 9.82506C154.875 9.82506 153.102 9.41354 153.102 11.6049C153.102 12.6988 153.122 13.7722 153.146 14.8936C153.184 16.7145 153.239 18.6658 153.239 21.0355L153.17 43.2677V45.5791C153.17 48.3225 153.856 48.8575 154.676 48.8575H161.641C162.738 48.8575 163.211 47.9007 163.211 46.5358C163.211 45.0338 162.525 41.1347 162.525 34.3035C162.525 33.5484 162.568 32.7939 162.652 32.0436C163.311 25.8982 166.541 19.4134 170.793 19.4134C173.389 19.4134 174.843 20.8434 175.495 24.3379C175.813 26.3219 175.954 28.3302 175.917 30.3392C175.917 33.2061 176.126 40.658 176.126 44.2759C176.126 45.2293 176.061 46.3335 176.044 47.2834C176.023 48.5145 176.081 49.4748 176.465 49.4748H184.665C186.037 49.4748 186.308 48.3808 186.308 45.5105C186.314 45.0921 186.301 44.4782 186.287 43.7238Z" fill="white"/>
<path d="M33.2611 92.9379C33.1788 87.0463 30.4594 82.9929 26.0836 82.9929C25.1885 82.9929 25.1234 82.6739 26.0836 82.0361C27.7983 80.8941 30.9052 78.6719 31.0321 73.9017C31.0321 73.672 31.0321 73.4422 31.0321 73.2159C30.9944 65.1673 25.8504 59.2792 18.1139 59.2792C10.1647 59.2792 9.71549 59.4712 8.13115 59.4712C6.67026 59.4712 5.3877 60.5514 5.3877 62.3312V82.6739C5.3877 84.6629 5.2711 89.4434 5.15107 93.8363C5.04134 97.8829 4.94531 101.6 4.94531 102.516C4.94531 103.658 5.70663 104.934 8.12429 104.934C10.4768 104.934 14.4891 104.742 15.2504 104.742H15.3739C24.0912 104.742 33.244 102.897 33.244 93.2328C33.2646 93.123 33.2646 93.0305 33.2611 92.9379ZM13.9953 69.7489C13.9953 68.48 14.6331 67.8422 15.5796 67.8422C18.7654 67.8422 23.7242 68.6652 23.7242 73.1233C23.7224 73.7029 23.6428 74.2796 23.4876 74.838C22.6509 77.7906 19.7154 79.9168 16.2209 79.9168C14.1873 79.9168 13.5495 79.471 13.5495 78.0101C13.5495 77.6329 13.5838 76.8681 13.6283 75.9525C13.7586 73.4319 13.9953 69.7489 13.9953 69.7489ZM15.7099 97.3479C15.319 96.6141 15.2092 95.3692 15.2264 94.0798C15.247 92.0222 15.5693 89.8549 15.5693 89.464C15.5693 88.3803 16.5295 87.8693 17.3491 87.8693C18.1173 87.8693 20.535 88.0648 21.6152 88.0648C23.3299 88.0648 25.432 89.7795 25.432 92.7698C25.4321 93.0978 25.3942 93.4246 25.3189 93.7438C24.2695 98.003 16.3649 98.5345 15.7134 97.3479H15.7099Z" fill="white"/>
<path d="M56.7072 68.6139C49.4576 68.6139 45.5174 73.6344 44.7046 76.1583C44.516 76.7379 43.8164 77.3689 43.9399 75.397C44.005 74.9512 44.0633 74.1933 44.0633 70.5034C44.0633 69.2517 43.6998 68.2504 43.2026 68.2161H43.1786C42.671 68.2161 39.3652 68.3395 38.6004 68.3395C38.6004 68.3395 36.9475 67.9623 36.9475 69.9959C36.9475 70.3937 36.9475 70.788 36.9475 71.1824C36.9749 73.4492 37.0641 75.7434 37.0641 78.7715L37.0264 92.3413L37.0024 101.6C37.0024 104.142 37.6368 104.652 38.3981 104.652H44.2485C45.2773 104.652 45.7197 103.764 45.7197 102.489C45.7197 101.089 46.3438 97.4612 46.3438 91.1067C46.3438 90.6986 46.3438 90.2837 46.3815 89.8653C46.7005 83.9051 49.2999 77.242 54.2347 77.242C56.0145 77.242 57.2936 77.5609 58.9397 77.5609C60.5858 77.5609 61.6831 77.434 61.6831 74.8929C61.666 69.4952 61.2236 68.6139 56.7072 68.6139Z" fill="white"/>
<path d="M90.1808 90.925V90.8598C90.1808 90.8598 90.4311 87.2385 90.3728 83.2948C90.3728 82.4443 90.3728 81.6452 90.3419 80.8634C90.3008 79.2482 90.2048 77.6947 89.999 75.8531C89.2343 69.5569 81.9916 69.1797 80.0197 69.1797C79.0561 69.1797 76.6521 69.0768 74.3202 68.9534C71.8717 68.8333 69.502 68.6996 69.0151 68.6653C67.1667 68.5419 65.9596 69.3032 65.7709 70.4451C65.5834 71.7522 65.4974 73.0719 65.5137 74.3923C65.5137 75.6302 66.3574 76.2372 67.7942 76.4259C68.1573 76.4689 68.5226 76.4895 68.8882 76.4876C78.9326 76.4876 81.6692 75.2805 81.6692 79.159C81.6692 80.685 81.2234 81.5595 80.2701 81.7001C79.4436 81.8339 73.4629 82.338 71.6968 82.9107C66.2922 84.6253 63.8094 89.1452 63.8094 92.8317C63.8094 94.9956 63.6173 97.3481 65.0233 100.033C65.6745 101.375 66.6652 102.523 67.8971 103.363C69.7146 104.563 71.9848 104.913 74.8072 104.992C77.7975 105.054 80.4758 103.72 82.6294 101.813C82.8215 101.679 83.0752 101.175 83.0752 101.94C83.0633 102.534 83.085 103.128 83.1404 103.72C83.2673 105.181 86.0656 104.992 87.3379 104.992C88.4798 104.992 90.6437 105.119 90.6437 103.524C90.6232 102.626 90.1808 92.3276 90.1808 90.925ZM75.5308 98.0305C75.3936 98.0305 75.2496 98.0511 75.1055 98.0511C72.7564 98.0511 71.1721 96.2644 71.1721 92.451C71.1721 89.0217 73.8984 87.5574 76.635 87.5574C78.48 87.5574 82.5506 87.5574 82.5506 89.783C82.497 90.4962 82.3134 91.1935 82.0087 91.8406C80.9559 94.3783 78.4525 97.7287 75.5308 98.0305Z" fill="white"/>
<path d="M107.159 86.7069C104.203 85.5787 101.792 83.9943 101.792 80.1158C101.792 75.2804 104.848 74.3922 106.628 74.3922C108.407 74.3922 109.992 76.755 110.17 79.7934C110.17 79.982 110.17 80.1741 110.17 80.3661C110.17 81.3949 109.789 82.4237 112.08 82.4237H116.021C116.919 82.4237 116.919 80.7708 116.919 79.4951C116.919 76.3881 116.014 72.9794 113.685 70.6406C111.926 68.8539 109.347 67.6674 105.719 67.6674C99.3609 67.6674 94.6559 73.3909 94.6559 79.4951C94.6559 87.9037 100.225 90.2288 104.601 91.9195C107.447 93.0203 109.789 93.8536 109.789 95.9043C109.789 98.1951 108.582 98.8261 106.61 98.8261C104.639 98.8261 103.113 97.4887 102.392 95.9935C102.085 95.372 101.918 94.6908 101.902 93.9976C101.902 92.595 100.873 92.9688 99.9953 92.9688H96.0516C94.529 92.9688 94.0215 93.9976 94.0215 94.999C94.0509 96.5256 94.4439 98.0232 95.1679 99.3675C95.892 100.712 96.9261 101.864 98.1847 102.729C100.06 104.039 102.643 104.92 106.103 104.92C113.099 104.92 117.931 101.36 117.931 96.0038C117.948 89.1417 111.857 88.5039 107.159 86.7069Z" fill="white"/>
<path d="M130.911 60.3834C130.849 59.9286 130.813 59.4706 130.804 59.0117C130.804 57.6091 129.09 57.3587 128.321 57.3587C127.553 57.3587 124.635 57.1667 123.863 57.1667C123.092 57.1667 122.334 57.8045 122.015 59.3306C121.573 60.6646 122.399 62.6982 121.96 64.0973C121.449 65.4313 122.989 65.7503 124.241 65.7503C125.307 65.7503 128.051 65.4073 129.295 65.325C129.463 65.325 129.607 65.325 129.71 65.325C130.602 65.325 131.367 64.9375 131.367 63.9224C131.377 63.2537 131.079 61.7071 130.911 60.3834ZM130.804 70.4587C130.804 69.4505 129.566 68.991 128.153 68.9395C128.061 68.9395 127.972 68.9395 127.876 68.9395C126.152 68.9674 124.433 69.1187 122.732 69.3922C121.977 69.3922 121.977 70.5993 121.977 70.5993L122.084 87.6155V90.4413C122.084 91.9605 121.322 100.801 121.192 102.008C121.192 103.284 121.96 104.299 123.935 104.491C126.034 104.491 128.633 104.172 129.841 104.045C129.961 104.021 130.077 103.977 130.184 103.915C130.698 103.63 130.773 102.979 130.78 102.043V101.535C130.935 100.335 130.804 71.4704 130.804 70.445V70.4587Z" fill="white"/>
<path d="M155.866 98.4281C155.797 97.629 155.739 96.9877 155.739 96.7786C155.739 96.1407 155.104 95.5097 154.213 95.5097C153.321 95.5097 146.908 95.2525 146.02 95.2525C145.632 95.2792 145.242 95.2398 144.868 95.1359C144.477 94.985 144.23 94.6421 144.23 93.8568V79.3508C144.23 77.06 144.621 62.4374 144.621 60.9114C144.624 60.6986 144.605 60.4861 144.566 60.277C144.398 59.3545 143.853 59.0115 143.225 59.0115H137.879C137.611 59.0079 137.344 59.0579 137.096 59.1588C136.847 59.2596 136.621 59.4092 136.431 59.5988C136.242 59.7883 136.092 60.0139 135.99 60.2623C135.889 60.5107 135.839 60.7769 135.842 61.0451C135.712 61.8064 135.458 79.9955 135.458 82.4132V102.379C135.458 103.143 136.6 104.669 139.017 104.669C139.755 104.669 140.766 104.669 141.925 104.704C145.485 104.765 150.478 104.892 153.417 104.916C153.76 104.916 154.058 104.916 154.34 104.916C155.368 104.916 156.116 104.152 156.246 103.01C156.257 102.324 156.016 100.05 155.866 98.4281Z" fill="white"/>
<path d="M187.669 65.5444C187.649 64.4763 187.548 63.4113 187.367 62.3586C186.596 58.0891 184.843 56.076 180.783 56.076C176.723 56.076 171.363 56.9917 171.363 63.7646C171.363 65.6575 171.291 67.8797 171.291 70.8701C171.279 71.9262 171.446 72.9767 171.784 73.9771C172.197 75.2367 172.991 76.3371 174.056 77.1259C175.122 77.9147 176.406 78.353 177.731 78.3803C179.562 78.3803 180.131 78.2877 181.448 78.2877C186.404 78.2877 187.83 71.0141 187.669 65.5444ZM180.783 73.3735C178.928 73.3735 176.894 72.9757 176.894 70.2871V70.1671L177.059 64.9751C177.059 61.3743 178.815 60.5856 180.776 60.5856C182.316 60.5856 182.666 62.2317 182.772 63.6926C182.841 64.8139 182.923 65.9833 182.964 67.1219C183.084 70.4517 182.827 73.3735 180.783 73.3735Z" fill="white"/>
<path d="M177.405 100.668C177.405 100.115 176.564 99.9612 175.656 99.8686C174.25 99.7006 172.792 99.8926 171.314 100.064C170.396 100.185 169.472 100.254 168.547 100.27C167.429 100.27 166.901 100.081 167.353 99.5394C169.528 96.9159 177.641 96.5765 177.641 90.2288C177.641 86.2645 173.927 82.7255 169.305 82.7255C163.561 82.7255 161.873 86.2028 161.873 91.2027C161.873 92.06 162.216 92.2315 162.576 92.2315C162.576 92.2315 163.982 92.2932 164.613 92.2932C165.299 92.2932 165.519 92.108 165.519 91.4942C165.519 90.9524 165.663 86.9195 168.742 86.9195C170.985 86.9195 172.11 88.1438 172.11 89.4229C172.11 96.0106 162.086 92.9619 161.914 100.867C161.914 101.552 161.808 102.605 161.808 103.336C161.808 104.124 161.736 104.556 163.804 104.556C165.447 104.556 166.777 104.615 167.919 104.639H168.773C171.753 104.639 173.718 104.515 176.623 104.515C177.778 104.515 177.535 104.028 177.535 103.36C177.549 102.907 177.405 101.535 177.405 100.668Z" fill="white"/>
<path d="M169.364 76.2818C169.322 75.6577 169.24 74.7147 169.24 74.0459C169.24 73.4938 168.4 73.3429 167.491 73.2538C165.211 72.976 162.796 73.6481 160.379 73.6481C159.264 73.6481 158.736 73.4664 159.189 72.9177C161.363 70.2943 169.477 69.9548 169.477 63.614C169.477 60.4864 167.165 57.623 163.928 56.5496L163.585 56.4433C162.792 56.2168 161.972 56.1013 161.147 56.1003C156.857 56.1003 154.827 58.0379 154.086 61.1071C154.125 61.2149 154.174 61.3193 154.23 61.4192C154.257 61.4699 154.28 61.5226 154.299 61.5769C154.172 61.7038 154.038 61.8239 153.911 61.9507C153.729 62.1222 153.548 62.2937 153.369 62.4892C153.313 62.5573 153.24 62.6105 153.158 62.644C153.077 62.6775 152.988 62.6903 152.899 62.6812C152.663 62.6675 152.426 62.6675 152.19 62.6812C151.847 62.6812 151.672 62.8527 151.679 63.1236C151.686 63.3945 151.843 63.5248 152.179 63.5317C152.913 63.5317 152.913 63.5317 152.924 64.2724C152.924 64.6153 153.054 64.7731 153.328 64.7799C153.405 64.7819 153.481 64.7644 153.55 64.729C153.618 64.6937 153.676 64.6416 153.719 64.5776C153.768 64.4951 153.783 64.3966 153.76 64.3033C153.744 64.2115 153.733 64.1187 153.729 64.0255C153.726 63.9718 153.726 63.918 153.729 63.8643C153.764 63.223 154.196 62.7841 154.686 62.3657C154.758 62.304 154.813 62.2251 154.878 62.1599C155.261 62.3839 155.688 62.5198 156.13 62.5577C156.466 62.5692 156.802 62.5107 157.114 62.3862C157.427 62.2617 157.711 62.0737 157.947 61.8341C158.071 61.7141 158.184 61.5872 158.29 61.4672C158.544 61.0989 158.885 60.7997 159.283 60.5967C159.681 60.3937 160.124 60.2933 160.571 60.3047H160.811C162.889 60.3904 163.928 61.5701 163.928 62.8046C163.928 64.9514 162.872 66.0728 161.438 66.8821C158.458 68.5693 153.867 68.9157 153.743 74.2483C153.743 74.9341 153.637 75.9869 153.637 76.7174C153.637 77.5164 153.565 77.9382 155.629 77.9382C157.694 77.9382 159.275 78.0342 160.602 78.0342C163.345 78.0342 165.248 77.9313 167.803 77.9176H168.438C169.593 77.9176 169.35 77.4238 169.35 76.7551C169.384 76.6453 169.377 76.4807 169.364 76.2818ZM156.943 60.7505C156.936 60.8966 156.873 61.0344 156.766 61.1339C156.658 61.2335 156.516 61.2867 156.37 61.282C156.072 61.282 155.869 61.0248 155.849 60.6545C155.849 60.4899 155.849 60.3115 155.849 60.1572C155.849 60.0029 155.849 59.7971 155.849 59.6188C155.841 59.5458 155.848 59.472 155.869 59.4017C155.89 59.3314 155.925 59.266 155.972 59.2092C156.018 59.1524 156.076 59.1055 156.14 59.071C156.205 59.0365 156.276 59.0153 156.349 59.0084C156.421 59.0003 156.494 59.0072 156.563 59.0286C156.632 59.0501 156.696 59.0856 156.751 59.1329C156.806 59.1803 156.85 59.2384 156.881 59.3037C156.913 59.3691 156.93 59.4402 156.932 59.5125C156.994 59.9226 156.998 60.3394 156.943 60.7505Z" fill="white"/>
<path d="M196.342 100.668C196.342 100.116 195.498 99.9613 194.589 99.8755C192.312 99.5978 189.895 100.27 187.473 100.27C186.359 100.27 185.838 100.088 186.29 99.5395C188.461 96.916 196.578 96.5765 196.578 90.2357C196.562 88.7595 196.074 87.3271 195.186 86.148C194.065 84.6506 192.481 83.5656 190.68 83.0616C189.885 82.8362 189.064 82.7208 188.238 82.7187C183.952 82.7187 181.928 84.6562 181.184 87.7255C181.224 87.8326 181.271 87.9369 181.325 88.0376C181.354 88.0875 181.378 88.1403 181.397 88.1953C181.27 88.3222 181.136 88.4422 181.009 88.5691C180.824 88.7406 180.646 88.912 180.464 89.1041C180.407 89.1724 180.334 89.2259 180.251 89.26C180.169 89.294 180.079 89.3076 179.991 89.2995C179.754 89.2858 179.517 89.2858 179.281 89.2995C178.938 89.2995 178.766 89.471 178.77 89.7419C178.773 90.0128 178.938 90.1397 179.277 90.1466C180.008 90.1466 180.008 90.1466 180.022 90.8907C180.022 91.2337 180.155 91.388 180.423 91.3948C180.5 91.3975 180.576 91.3806 180.645 91.3459C180.714 91.3111 180.773 91.2595 180.817 91.1959C180.842 91.156 180.859 91.1114 180.866 91.0648C180.873 91.0182 180.87 90.9706 180.858 90.925C180.839 90.8336 180.827 90.7407 180.824 90.6473C180.824 90.5924 180.824 90.541 180.824 90.4861C180.862 89.8414 181.29 89.4058 181.784 88.9875C181.853 88.9257 181.911 88.8469 181.976 88.7817C182.358 89.0062 182.786 89.1421 183.228 89.1795C183.564 89.1928 183.899 89.1352 184.212 89.0105C184.524 88.8859 184.807 88.6969 185.042 88.4559C185.169 88.3359 185.279 88.209 185.385 88.089C185.637 87.7205 185.978 87.4211 186.376 87.218C186.773 87.015 187.216 86.9148 187.662 86.9265C188.433 86.9022 189.195 87.0921 189.864 87.4751C190.215 87.6712 190.509 87.9563 190.715 88.3018C190.922 88.6474 191.034 89.0411 191.04 89.4436C191.04 91.5903 189.984 92.7117 188.55 93.521C185.57 95.2082 180.971 95.5546 180.855 100.887C180.855 101.573 180.749 102.626 180.749 103.356C180.749 104.152 180.673 104.577 182.741 104.577C184.809 104.577 186.386 104.67 187.713 104.67C190.697 104.67 192.652 104.553 195.563 104.553C196.719 104.553 196.469 104.059 196.469 103.391C196.479 102.907 196.342 101.535 196.342 100.668ZM184.034 87.3723C184.028 87.5184 183.964 87.6562 183.857 87.7557C183.749 87.8552 183.607 87.9085 183.461 87.9038C183.163 87.9038 182.96 87.6466 182.94 87.2762C182.931 87.1106 182.931 86.9446 182.94 86.779C182.94 86.5972 182.94 86.4189 182.94 86.2372C182.932 86.1645 182.938 86.091 182.959 86.0209C182.98 85.9508 183.014 85.8856 183.061 85.829C183.107 85.7725 183.164 85.7258 183.229 85.6916C183.294 85.6575 183.364 85.6366 183.437 85.6302C183.509 85.6221 183.582 85.6289 183.652 85.65C183.721 85.6711 183.786 85.7062 183.841 85.753C183.897 85.7999 183.942 85.8575 183.975 85.9225C184.007 85.9875 184.026 86.0583 184.03 86.1309C184.088 86.5426 184.089 86.9602 184.034 87.3723Z" fill="white"/>
<path d="M22.6166 2.90806C20.7248 5.06062 18.6839 7.07746 16.509 8.94366C14.9126 8.22309 13.1743 7.87146 11.4234 7.91486C10.0516 7.91486 9.70871 9.97245 9.70871 11.327C9.70871 11.327 9.61269 12.5479 9.50639 14.0465C6.6482 15.8244 3.6298 17.3307 0.490723 18.5457V3.34359C0.490723 1.43347 1.86245 0.257213 3.42965 0.257213C5.1443 0.257213 5.61411 0.0514526 14.1634 0.0514526C17.5173 0.0651699 20.3807 1.10082 22.6166 2.90806Z" fill="#166D82"/>
<path d="M28.0309 15.7816C28.0309 28.6312 19.0083 30.8157 13.3363 30.8157C12.4481 30.8157 11.4227 31.3678 11.4227 32.5304C11.4227 32.9247 11.4433 34.6051 11.4844 36.6455C7.97078 37.911 4.3494 38.8545 0.66495 39.4644L0.174561 39.5433C0.315162 34.3067 0.490057 27.7259 0.490057 25.2328V18.5456C3.63347 17.3347 6.65648 15.8318 9.51943 14.0567C9.38911 15.9531 9.23823 18.2884 9.23823 19.1252C9.23823 20.6992 9.16964 22.2733 11.3575 22.2733C17.1634 22.2733 20.1674 19.06 20.1674 14.962C20.1674 12.0128 18.7683 10.0272 16.5084 8.94012C18.6832 7.07392 20.7241 5.05709 22.616 2.90454C26.0727 5.69257 28.0309 10.3153 28.0309 15.7816Z" fill="#269FA2"/>
<path d="M39.6121 14.4683C37.0396 18.1087 34.1215 21.492 30.8982 24.5711C31.2034 19.8215 31.5395 15.041 31.5395 12.2976C31.5395 9.97935 32.9764 10.24 35.8501 10.1131C38.4461 10.1131 39.6052 11.5465 39.6052 13.1206C39.6052 13.5081 39.6086 13.9642 39.6121 14.4683Z" fill="#269FA2"/>
<path d="M11.7694 45.1672C12.0437 47.2248 11.9717 48.9395 11.0835 48.9395C10.2639 48.9395 5.96014 49.1452 3.42931 49.1452C0.833323 49.1452 0 47.7735 0 46.5492C0 45.7434 0.0720126 42.921 0.157745 39.5363L0.64814 39.4574C4.33259 38.8475 7.95398 37.904 11.4676 36.6385C11.5396 39.8827 11.6425 44.0321 11.7694 45.1672Z" fill="#4EB8B4"/>
<path d="M35.0336 48.5282C34.1969 49.0837 33.3396 49.6119 32.4651 50.1228C32.6777 48.7888 33.8848 48.5591 35.0336 48.5282Z" fill="#4EB8B4"/>
<path d="M47.6022 37.3554C45.2583 40.1033 42.6825 42.6446 39.9033 44.9513C32.2491 44.502 30.3733 39.4644 30.3733 35.5481C30.3733 32.8047 30.6271 28.7135 30.898 24.5743C34.1212 21.4953 37.0394 18.112 39.6118 14.4716C39.6359 17.3453 39.6976 21.7417 39.4644 23.3878C39.1215 25.9838 39.3992 29.125 39.3992 31.4467C39.3992 33.7683 39.5364 37.736 45.2805 37.736C46.0701 37.7384 46.8547 37.6098 47.6022 37.3554Z" fill="#4EB8B4"/>
<path d="M60.4415 12.9801C60.4415 13.347 60.3249 15.2297 60.1569 17.7605C57.9193 22.3836 55.3402 26.8335 52.4409 31.0731C52.7234 29.8229 52.8637 28.5448 52.8593 27.2632C52.8593 24.3963 53.7509 18.5184 53.7509 15.4457C53.7509 14.1426 53.8812 10.7956 55.9388 10.7956H58.8057C60.174 10.7956 60.4415 11.7524 60.4415 12.9801Z" fill="#4EB8B4"/>
<path d="M23.4876 74.8448C23.6428 74.2864 23.7224 73.7097 23.7242 73.1302C23.7242 68.6721 18.7654 67.849 15.5796 67.849C14.6331 67.849 13.9952 68.4869 13.9952 69.7557C13.9952 69.7557 13.7586 73.4388 13.6283 75.9594C10.8848 76.1514 8.15855 76.2577 5.39795 76.3023V62.3107C5.39795 60.5309 6.67365 59.4507 8.1414 59.4507C9.72574 59.4507 10.175 59.2586 18.1241 59.2586C25.8607 59.2586 31.0046 65.1467 31.0423 73.1953C28.5594 73.8962 26.0366 74.447 23.4876 74.8448Z" fill="#047F4D"/>
<path d="M43.1612 68.2225H43.1852C41.1674 69.3394 39.0817 70.329 36.9404 71.1855C36.9404 70.7911 36.9404 70.3967 36.9404 69.9989C36.9404 67.9653 38.5934 68.3426 38.5934 68.3426C39.3478 68.346 42.6537 68.2225 43.1612 68.2225Z" fill="#047F4D"/>
<path d="M60.1576 17.7605C59.753 23.7275 59.0843 33.2987 59.0843 35.1265C59.0843 37.87 58.2578 48.5214 58.2578 51.1174C58.2578 53.8437 56.3477 57.1256 52.5137 57.5371C48.5597 57.9486 36.2553 58.3601 34.6127 58.3601C32.9701 58.3601 32.8397 57.6743 32.5723 56.4431C32.4282 55.212 32.4282 52.328 32.4282 50.5653C32.428 50.417 32.4406 50.269 32.4659 50.1229C33.3404 49.612 34.1978 49.0941 35.0345 48.5283C35.1717 48.5283 35.302 48.5283 35.4357 48.5283C36.9412 48.5283 44.5954 48.7992 47.6029 48.7992C52.3834 48.7992 53.4773 45.1058 52.6577 42.7842C52.2531 41.5531 49.6468 44.9755 41.0427 44.9755C40.6483 44.9755 40.2711 44.9755 39.9041 44.9412C42.6826 42.64 45.2583 40.1044 47.6029 37.3624C50.2778 36.4468 51.7798 33.9331 52.4417 31.0799C55.3412 26.8381 57.9204 22.386 60.1576 17.7605Z" fill="#047F4D"/>
<path d="M79.6357 10.5108V17.0848C76.7791 24.9551 73.5864 32.6162 69.7422 39.6634C69.7422 39.4508 69.725 39.2382 69.725 39.0187C69.725 34.5606 70.2086 28.086 70.2086 26.7863C70.2086 25.5586 69.4473 25.5586 67.1976 25.5586H64.9411C63.1648 25.5586 63.4391 24.667 63.4391 23.2987C63.4391 21.8001 63.6483 21.0491 63.6483 20.4318C63.6483 19.5402 65.7059 19.2693 67.0605 19.2693H69.3135C70.6852 19.2693 71.5666 18.652 71.5666 17.0128C71.5666 15.5108 71.2236 11.399 71.2236 11.399C71.2236 9.14253 71.7038 8.052 72.9383 8.052H77.7908C78.7544 8.052 79.6357 9.4203 79.6357 10.5108Z" fill="#047F4D"/>
<path d="M33.2606 92.9379C30.6269 93.2991 27.9829 93.5678 25.3286 93.7438C25.4039 93.4247 25.4419 93.0978 25.4418 92.7699C25.4418 89.783 23.343 88.0649 21.625 88.0649C20.5447 88.0649 18.1271 87.8694 17.3589 87.8694C16.5393 87.8694 15.5791 88.3804 15.5791 89.464C15.5791 89.855 15.2361 92.0257 15.2361 94.0799C11.8857 94.0799 8.53527 93.9873 5.17798 93.8193C5.298 89.4263 5.4146 84.6458 5.4146 82.6568V76.2852C8.15805 76.2509 10.9015 76.1446 13.6449 75.9422C13.6004 76.8647 13.5661 77.6295 13.5661 77.9998C13.5661 79.4607 14.2039 79.9065 16.2375 79.9065C19.7285 79.9065 22.6675 77.7804 23.5042 74.8277C26.0498 74.4295 28.5692 73.8787 31.0487 73.1782C31.0487 73.408 31.0487 73.6378 31.0487 73.8641C30.9218 78.6343 27.8114 80.8565 26.1002 81.9984C25.14 82.6363 25.2052 82.9552 26.1002 82.9552C30.4589 82.9758 33.1783 87.0464 33.2606 92.9379Z" fill="#27A058"/>
<path d="M61.666 74.9031C61.666 77.4442 60.5858 77.5711 58.9226 77.5711C57.2594 77.5711 55.9974 77.2521 54.2176 77.2521C49.2828 77.2521 46.6731 83.9153 46.3644 89.8754C43.3143 90.939 40.1866 91.7657 37.0093 92.348L37.047 78.7782C37.047 75.7501 36.9579 73.4559 36.9304 71.1891C39.0717 70.3326 41.1574 69.343 43.1752 68.2262C43.6724 68.2605 44.036 69.255 44.036 70.5135C44.036 74.2035 43.9777 74.9717 43.9125 75.4072C43.789 77.379 44.4886 76.748 44.6772 76.1685C45.5071 73.6274 49.4474 68.624 56.6798 68.624C61.2237 68.6137 61.666 69.4951 61.666 74.9031Z" fill="#27A058"/>
<path d="M69.0047 68.6651C69.4917 68.6994 71.8613 68.8331 74.3099 68.9532C72.3171 71.5947 70.1397 74.0918 67.7942 76.4257C66.3573 76.237 65.5137 75.63 65.5137 74.3921C65.4973 73.0717 65.5833 71.752 65.7709 70.4449C65.9492 69.2995 67.1563 68.5417 69.0047 68.6651Z" fill="#27A058"/>
<path d="M86.2644 44.9686V47.9692C86.2623 48.1007 86.2474 48.2316 86.2198 48.3602C86.0758 48.6791 85.9317 48.9946 85.7911 49.3101C85.5893 49.5964 85.3209 49.8293 85.0091 49.9888C84.6972 50.1483 84.3513 50.2296 84.001 50.2257C76.7789 50.2257 70.126 46.6832 69.7419 39.6634C73.5862 32.6162 76.7789 24.9551 79.6355 17.0848V17.4278C79.6355 18.6555 80.5237 19.6843 82.6396 19.6843C84.5531 19.6843 85.7808 20.0272 85.7808 21.3235C85.7808 22.6952 85.9249 24.9448 84.5531 24.9448H80.5237C79.6355 24.9448 79.6355 27.8186 79.6355 29.18C79.6355 30.5415 79.0182 35.4694 79.0182 37.7259C79.0182 39.9824 80.798 42.7121 84.5531 42.7121C86.4015 42.7087 86.2644 44.077 86.2644 44.9686Z" fill="#27A058"/>
<path d="M89.7455 39.9652L89.8038 21.0491C89.8038 17.2186 89.2551 4.78045 89.2551 1.91012C89.2551 -0.274353 91.0281 0.13717 91.0281 0.13717C91.8545 0.13717 95.4039 0 95.9526 0C96.5013 0 96.9059 1.09394 96.9059 2.45538V11.207C96.9059 12.8462 97.0465 16.399 97.0465 18.5183C97.0449 18.6783 97.0598 18.838 97.0911 18.995C94.814 26.0319 92.4375 33.1134 89.7455 39.9652Z" fill="#27A058"/>
<path d="M33.2648 93.2157C33.2648 102.88 24.1119 104.724 15.3946 104.724H15.2712C14.5098 104.724 10.4976 104.917 8.14504 104.917C5.72738 104.917 4.96606 103.641 4.96606 102.499C4.96606 101.583 5.06209 97.8659 5.17183 93.8193C8.52912 93.9873 11.8796 94.0833 15.23 94.0799C15.2129 95.3693 15.3226 96.6141 15.7135 97.348C16.3651 98.5346 24.2697 98.003 25.3156 93.7438C27.9699 93.5632 30.6139 93.2946 33.2476 92.9379C33.2647 93.0305 33.2648 93.1231 33.2648 93.2157Z" fill="#4FB765"/>
<path d="M37.0198 92.3479C40.1972 91.7656 43.3249 90.9389 46.375 89.8754C46.351 90.2937 46.3373 90.7087 46.3373 91.1168C46.3373 97.4713 45.7132 101.1 45.7132 102.499C45.7132 103.774 45.2605 104.663 44.242 104.663H38.3916C37.6303 104.663 36.9958 104.152 36.9958 101.61L37.0198 92.3479Z" fill="#4FB765"/>
<path d="M86.2194 48.3602C86.1456 48.7036 85.9994 49.0275 85.7908 49.3101C85.9314 48.9946 86.0754 48.6791 86.2194 48.3602Z" fill="#4FB765"/>
<path d="M82.0088 91.8574C82.3134 91.2104 82.4971 90.513 82.5506 89.7998C82.5506 87.5742 78.48 87.5742 76.6351 87.5742C73.8916 87.5742 71.1722 89.0351 71.1722 92.4678C71.1722 96.2812 72.7565 98.0679 75.1056 98.0679C75.2496 98.0679 75.3937 98.0679 75.5308 98.0473C73.1302 100.029 70.5701 101.809 67.8766 103.37C66.6447 102.529 65.654 101.381 65.0028 100.04C63.5968 97.3649 63.7889 95.0124 63.7889 92.8382C63.7889 89.1517 66.2683 84.6353 71.6763 82.9172C73.4561 82.3445 79.4368 81.8404 80.2496 81.7067C81.2029 81.5832 81.6487 80.6779 81.6487 79.1656C81.6487 75.287 78.9053 76.4941 68.8677 76.4941C68.5021 76.496 68.1368 76.4754 67.7737 76.4324C70.1218 74.0976 72.3014 71.5994 74.2963 68.9565C76.6282 69.0799 79.0322 69.1828 79.9958 69.1828C81.9677 69.1828 89.2104 69.56 89.9751 75.8563C90.1911 77.6978 90.2872 79.2513 90.318 80.8665C87.8778 84.768 85.0973 88.446 82.0088 91.8574Z" fill="#4FB765"/>
<path d="M115.588 17.3384C114.024 21.8273 112.519 26.4535 110.996 31.1345C110.599 26.6558 109.234 23.5043 105.791 23.5043C103.198 23.5043 99.7722 27.6194 99.7722 34.3032C99.7722 41.1344 99.4293 45.0335 99.4293 46.5355C99.4293 47.9072 98.6028 48.8572 97.5123 48.8572H91.2367C90.4102 48.8572 89.7312 48.3119 89.7312 45.5787V39.965C92.4232 33.1063 94.7997 26.0317 97.0768 18.9947C97.2414 19.7732 97.8415 19.588 98.1879 18.6518C98.9423 16.5942 102.303 14.2143 108.171 14.2143C109.555 14.1967 110.929 14.465 112.205 15.0026C113.482 15.5402 114.633 16.3353 115.588 17.3384Z" fill="#4FB765"/>
<path d="M90.6228 103.514C90.6228 105.108 88.459 104.981 87.317 104.981C86.0447 104.981 83.2464 105.17 83.1195 103.709C83.0641 103.118 83.0424 102.523 83.0544 101.929C83.0544 101.165 82.8006 101.669 82.6085 101.802C80.4549 103.709 77.7766 105.043 74.7863 104.981C71.964 104.903 69.6938 104.553 67.8762 103.353C70.5697 101.792 73.1298 100.012 75.5304 98.0303C78.4522 97.7285 80.9556 94.378 82.0084 91.8575C85.1053 88.446 87.894 84.7668 90.3416 80.8631C90.3622 81.645 90.3725 82.444 90.3725 83.2945C90.4308 87.2382 90.1805 90.8596 90.1805 90.8596V90.9247C90.1805 92.3273 90.6228 102.626 90.6228 103.514Z" fill="#ECAE21"/>
<path d="M101.92 93.9903C101.935 94.6834 102.103 95.3647 102.41 95.9861C101.082 98.3158 99.6791 100.565 98.2023 102.735C96.9437 101.87 95.9095 100.718 95.1855 99.3738C94.4614 98.0295 94.0684 96.5319 94.0391 95.0053C94.0391 93.9765 94.5466 92.9752 96.0692 92.9752H100.016C100.905 92.9615 101.92 92.5774 101.92 93.9903Z" fill="#ECAE21"/>
<path d="M113.702 70.623C112.581 73.7094 111.408 76.7958 110.17 79.793C109.992 76.7547 108.421 74.3919 106.627 74.3919C104.834 74.3919 101.792 75.2801 101.792 80.1154C101.792 83.9939 104.193 85.5783 107.159 86.7065C106.347 88.4646 105.5 90.1964 104.618 91.9019C100.242 90.2113 94.6729 87.8862 94.6729 79.4775C94.6729 73.3734 99.3779 67.6498 105.736 67.6498C109.364 67.6498 111.943 68.8364 113.702 70.623Z" fill="#ECAE21"/>
<path d="M118.565 26.1759C118.565 31.9131 118.774 42.5028 118.774 45.5104C118.774 48.3807 118.503 49.4746 117.132 49.4746H111.676C110.99 49.4746 110.582 47.6948 110.856 45.5104C111.268 43.1887 111.137 37.3109 111.137 34.4405C111.137 33.2814 111.096 32.1738 111.007 31.1347C112.53 26.4537 114.035 21.8275 115.599 17.3386C117.362 19.2315 118.565 22.1156 118.565 26.1759Z" fill="#ECAE21"/>
<path d="M136.116 10.2605C134.151 13.9676 132.412 17.7844 130.828 21.5567C130.097 23.3022 129.394 25.0408 128.725 26.7521C128.496 27.3316 128.276 27.9077 128.04 28.4667C126.472 32.5442 124.984 36.7897 123.53 41.138C122.748 38.6209 122.556 35.8569 122.556 33.3295C122.556 25.6067 123.441 16.3098 128.705 12.1466C130.536 10.5897 133.094 10.3154 136.116 10.2605Z" fill="#ECAE21"/>
<path d="M117.948 96.0104C117.948 101.357 113.116 104.927 106.12 104.927C102.67 104.927 100.077 104.045 98.2017 102.735C99.6831 100.563 101.088 98.3103 102.416 95.9761C103.136 97.4713 104.614 98.8087 106.634 98.8087C108.654 98.8087 109.813 98.1777 109.813 95.8869C109.813 93.8294 107.471 93.0029 104.625 91.9021C105.507 90.2011 106.354 88.4693 107.166 86.7067C111.857 88.5036 117.948 89.1415 117.948 96.0104Z" fill="#E5722B"/>
<path d="M110.187 80.3656C110.187 80.1736 110.187 79.9815 110.187 79.7929C111.425 76.782 112.588 73.7162 113.719 70.6229C116.048 72.9754 116.953 76.3705 116.953 79.4774C116.953 80.7531 116.953 82.406 116.055 82.406H112.097C109.807 82.406 110.187 81.3875 110.187 80.3656Z" fill="#E5722B"/>
<path d="M127.875 68.9189C127.971 68.9189 128.06 68.9189 128.153 68.9189C126.188 75.1122 124.209 81.3982 122.076 87.5881L121.963 70.5787C121.963 70.5787 121.963 69.3716 122.718 69.3716C124.424 69.0974 126.147 68.9461 127.875 68.9189Z" fill="#E5722B"/>
<path d="M130.804 59.0116C130.814 59.4705 130.849 59.9285 130.911 60.3834C130.376 62.018 129.841 63.6675 129.306 65.3318C128.061 65.4142 125.318 65.7571 124.251 65.7571C122.982 65.7571 121.46 65.4381 121.971 64.1041C122.409 62.705 121.583 60.6748 122.025 59.3374C122.344 57.8114 123.109 57.1735 123.874 57.1735C124.639 57.1735 127.56 57.3656 128.332 57.3656C129.103 57.3656 130.804 57.6022 130.804 59.0116Z" fill="#E5722B"/>
<path d="M137.779 41.5219C136.785 43.9773 135.845 46.4155 134.954 48.7989C134.854 49.0527 134.762 49.3099 134.666 49.5671C127.934 49.087 124.885 45.4862 123.548 41.1687C125.002 36.8203 126.49 32.5748 128.057 28.4974C128.277 27.9247 128.496 27.3486 128.743 26.7827C128.423 28.8744 128.374 30.9986 128.596 33.1029C128.877 35.0131 128.328 42.8696 134.474 42.8696C135.089 42.8944 135.702 42.7869 136.273 42.5544C136.843 42.3219 137.357 41.9698 137.779 41.5219Z" fill="#E5722B"/>
<path d="M139.545 37.3246C140.111 34.1457 139.93 30.0271 139.93 26.1759C139.93 20.4318 137.186 19.8866 134.597 19.8866C133.884 19.8671 133.175 20.0069 132.522 20.2958C131.87 20.5847 131.29 21.0154 130.825 21.5567C132.409 17.7844 134.148 13.9676 136.113 10.2605C136.507 10.2605 136.912 10.2605 137.33 10.2605C139.731 10.2605 147.618 10.6754 148.739 20.4593C145.08 25.6512 142.1 31.4639 139.545 37.3246Z" fill="#E5722B"/>
<path d="M158.627 9.71539C156.661 11.2958 154.826 13.032 153.14 14.9074C153.116 13.786 153.095 12.7126 153.095 11.6187C153.095 9.42733 154.868 9.83884 154.868 9.83884C155.571 9.83884 157.629 9.74626 158.627 9.71539Z" fill="#E5722B"/>
<path d="M130.804 70.445C130.804 71.4738 130.935 100.335 130.804 101.542V102.022C130.609 102.646 130.407 103.27 130.208 103.895C130.101 103.956 129.985 104 129.865 104.025C128.658 104.152 126.058 104.471 123.96 104.471C121.988 104.279 121.216 103.264 121.216 101.988C121.346 100.781 122.108 91.94 122.108 90.4208V87.595C124.241 81.4051 126.223 75.1192 128.184 68.9258C129.566 68.9773 130.804 69.4368 130.804 70.445Z" fill="#DF3B31"/>
<path d="M130.911 60.3834C131.079 61.7209 131.377 63.2675 131.377 63.9122C131.377 64.941 130.612 65.3148 129.721 65.3148C129.618 65.3148 129.474 65.3148 129.306 65.3148C129.841 63.6573 130.376 62.0135 130.911 60.3834Z" fill="#DF3B31"/>
<path d="M144.566 60.277C143.637 62.5575 142.766 64.838 141.933 67.0945L141.521 68.2193C141.387 68.5931 141.25 68.9669 141.116 69.3373C140.865 70.0231 140.617 70.725 140.372 71.4429C140.146 72.0979 139.916 72.7563 139.686 73.4182C139.395 74.2652 139.114 75.1328 138.832 75.9764L138.38 77.3687C137.382 80.4551 136.411 83.5861 135.448 86.7582V82.4064C135.448 79.9887 135.702 61.7997 135.832 61.0383C135.829 60.7701 135.879 60.5039 135.98 60.2555C136.082 60.0071 136.232 59.7815 136.421 59.592C136.611 59.4025 136.837 59.2528 137.086 59.152C137.334 59.0511 137.601 59.0011 137.869 59.0048H143.225C143.853 59.0116 144.398 59.3546 144.566 60.277Z" fill="#DF3B31"/>
<path d="M136.236 49.6086C135.691 49.6086 135.173 49.5914 134.666 49.5537C134.762 49.2965 134.854 49.0393 134.954 48.7856C135.845 46.4022 136.785 43.9639 137.78 41.5086C138.695 40.5278 139.23 39.0703 139.546 37.3248C142.101 31.4641 145.081 25.6651 148.743 20.4492C148.838 21.2607 148.884 22.0772 148.88 22.8943C148.88 35.1266 149.628 49.6086 136.236 49.6086Z" fill="#DF3B31"/>
<path d="M185.673 21.7214L185.33 21.7729L184.675 21.8826L184.295 21.9478L183.708 22.0575C183.492 22.0952 183.276 22.1398 183.064 22.1844C182.704 22.2564 182.34 22.3318 181.98 22.4141C181.62 22.4964 181.188 22.5959 180.793 22.6953L180.279 22.8257L179.843 22.9423L179.23 23.1103C178.18 23.4086 177.134 23.7413 176.106 24.1116L175.488 24.338C174.837 20.8435 173.383 19.4135 170.787 19.4135C166.534 19.4135 163.304 25.8983 162.645 32.0436C162.477 32.1911 162.303 32.342 162.148 32.4929C161.805 32.7947 161.483 33.1033 161.161 33.4154C161.003 33.5697 160.842 33.724 160.684 33.8852C160.362 34.2041 160.046 34.5265 159.734 34.8522C159.422 35.178 159.12 35.5072 158.818 35.8433C158.242 36.4777 157.687 37.1293 157.141 37.7946L156.668 38.3844C156.099 39.0977 155.546 39.8282 155.008 40.5758C154.854 40.7918 154.696 41.0079 154.542 41.2273C154.347 41.5017 154.155 41.7795 153.973 42.0572C153.832 42.2561 153.702 42.455 153.568 42.6574C153.434 42.8597 153.297 43.062 153.167 43.2678L153.225 21.0493C153.225 18.6762 153.17 16.7283 153.133 14.9074C154.819 13.0321 156.654 11.2958 158.619 9.71539C158.839 9.71539 159.01 9.71539 159.11 9.71539C159.655 9.71539 160.06 10.8093 160.06 12.1776C160.099 14.1139 160.033 16.051 159.861 17.98C159.727 19.3518 160.406 19.218 160.746 18.3915C161.977 15.384 165.125 10.1269 172.292 10.1269C175.552 10.1 178.709 11.2627 181.172 13.3972C183.636 15.5317 185.236 18.4914 185.673 21.7214Z" fill="#DF3B31"/>
<path d="M130.194 103.894C130.393 103.27 130.595 102.646 130.791 102.022C130.797 102.958 130.722 103.61 130.194 103.894Z" fill="#166D82"/>
<path d="M144.868 95.1324C143.856 98.2668 142.886 101.463 141.925 104.697C140.766 104.676 139.755 104.662 139.017 104.662C136.6 104.662 135.458 103.136 135.458 102.372V86.758C136.421 83.5859 137.392 80.4481 138.39 77.3686L138.842 75.9763C139.124 75.119 139.405 74.2617 139.696 73.418C139.916 72.7562 140.146 72.0978 140.382 71.4428C140.619 70.7878 140.876 70.0333 141.126 69.3372C141.26 68.9668 141.397 68.593 141.531 68.2192L141.943 67.0944C142.776 64.8379 143.657 62.5574 144.576 60.2769C144.616 60.4861 144.634 60.6986 144.631 60.9113C144.631 62.4374 144.24 77.06 144.24 79.3507V93.8533C144.23 94.6386 144.477 94.9816 144.868 95.1324Z" fill="#166D82"/>
<path d="M153.17 45.579V43.2676C153.3 43.0618 153.431 42.8595 153.571 42.6572C153.712 42.4549 153.835 42.256 153.976 42.0571C154.158 41.7793 154.35 41.5015 154.545 41.2272C154.699 41.0077 154.857 40.7916 155.011 40.5756C155.551 39.828 156.104 39.0976 156.671 38.3843L157.145 37.7944C157.69 37.1291 158.245 36.4776 158.821 35.8431C159.123 35.5002 159.428 35.1778 159.737 34.8521C160.046 34.5263 160.365 34.2039 160.687 33.885C160.845 33.7238 161.006 33.5695 161.164 33.4152C161.486 33.1031 161.815 32.7945 162.151 32.4927C162.316 32.3418 162.494 32.1909 162.649 32.0435C162.564 32.7938 162.522 33.5483 162.522 34.3034C162.522 41.1346 163.208 45.0337 163.208 46.5357C163.208 47.9075 162.734 48.8574 161.637 48.8574H154.679C153.856 48.8574 153.17 48.3121 153.17 45.579Z" fill="#166D82"/>
<path d="M163.588 56.4433C162.795 56.2168 161.975 56.1013 161.15 56.1003C156.86 56.1003 154.83 58.0379 154.089 61.1071C154.129 61.2149 154.177 61.3193 154.233 61.4192C154.26 61.4699 154.283 61.5226 154.302 61.5769C154.175 61.7038 154.041 61.8239 153.914 61.9507C153.733 62.1222 153.551 62.2937 153.373 62.4892C153.316 62.5573 153.244 62.6105 153.162 62.644C153.08 62.6775 152.991 62.6903 152.903 62.6812C152.666 62.6675 152.429 62.6675 152.193 62.6812C151.85 62.6812 151.675 62.8526 151.682 63.1236C151.689 63.3945 151.846 63.5248 152.183 63.5317C152.916 63.5317 152.916 63.5317 152.927 64.2724C152.927 64.6153 153.057 64.7731 153.331 64.7799C153.408 64.7819 153.484 64.7644 153.553 64.729C153.621 64.6937 153.679 64.6416 153.722 64.5776C153.771 64.4951 153.786 64.3966 153.763 64.3032C153.747 64.2115 153.736 64.1187 153.733 64.0255C153.729 63.9718 153.729 63.918 153.733 63.8643C153.767 63.223 154.199 62.7841 154.689 62.3657C154.761 62.304 154.816 62.2251 154.881 62.1599C155.264 62.3839 155.691 62.5198 156.133 62.5577C156.47 62.5692 156.805 62.5107 157.118 62.3862C157.43 62.2617 157.714 62.0737 157.951 61.8341C158.074 61.7141 158.187 61.5872 158.294 61.4672C158.547 61.0989 158.888 60.7997 159.286 60.5967C159.685 60.3937 160.127 60.2933 160.574 60.3047H160.814C161.795 58.9993 162.832 57.7418 163.924 56.5324L163.588 56.4433ZM156.942 60.7505C156.936 60.8966 156.873 61.0344 156.765 61.1339C156.658 61.2335 156.516 61.2867 156.37 61.282C156.071 61.282 155.869 61.0248 155.848 60.6545C155.848 60.4898 155.848 60.3115 155.848 60.1572C155.848 60.0029 155.848 59.7971 155.848 59.6188C155.841 59.5458 155.848 59.472 155.869 59.4017C155.89 59.3314 155.925 59.266 155.972 59.2092C156.018 59.1524 156.075 59.1055 156.14 59.071C156.205 59.0365 156.276 59.0153 156.349 59.0084C156.421 59.0003 156.494 59.0072 156.563 59.0286C156.632 59.0501 156.696 59.0856 156.751 59.1329C156.806 59.1803 156.85 59.2384 156.881 59.3037C156.912 59.3691 156.93 59.4402 156.932 59.5125C156.994 59.9226 156.997 60.3394 156.942 60.7505Z" fill="#166D82"/>
<path d="M186.287 43.7238C182.837 44.4727 179.487 45.6237 176.304 47.1531L176.051 47.28C176.051 46.3335 176.133 45.2224 176.133 44.2725C176.133 40.6545 175.924 33.2026 175.924 30.3357C175.961 28.3268 175.82 26.3184 175.502 24.3344L176.119 24.1115C177.148 23.7412 178.194 23.4085 179.243 23.1102L179.857 22.9421L180.293 22.8256L180.807 22.6952C181.201 22.5958 181.599 22.5032 181.994 22.414C182.388 22.3249 182.717 22.2563 183.077 22.1843C183.29 22.1397 183.506 22.0951 183.722 22.0574L184.308 21.9476L184.689 21.8825L185.344 21.7728L185.687 21.7213C185.794 22.4709 185.847 23.2274 185.845 23.9847C185.831 28.9263 186.188 39.0702 186.287 43.7238Z" fill="#166D82"/>
<path d="M155.739 96.7755C155.739 96.9846 155.797 97.6259 155.866 98.425C155.66 98.9359 155.454 99.4538 155.259 99.9579C155.019 100.565 154.789 101.172 154.556 101.782C154.398 102.211 154.237 102.636 154.083 103.065L153.935 103.466C153.787 103.871 153.643 104.275 153.503 104.68L153.417 104.906C150.478 104.882 145.485 104.755 141.926 104.694C142.886 101.46 143.856 98.2638 144.868 95.1294C145.243 95.2333 145.632 95.2727 146.02 95.246C146.909 95.246 153.325 95.5032 154.213 95.5032C155.101 95.5032 155.739 96.1376 155.739 96.7755Z" fill="#269FA2"/>
<path d="M169.24 74.0458C169.24 74.7145 169.322 75.6576 169.364 76.2817C169.151 76.4943 168.949 76.707 168.743 76.9264C168.633 77.0465 168.513 77.1699 168.4 77.2934C168.205 77.5026 168.019 77.7152 167.831 77.9278C165.262 77.9278 163.373 78.0444 160.629 78.0444C159.302 78.0444 157.731 77.9484 155.657 77.9484C153.582 77.9484 153.664 77.5266 153.664 76.7275C153.664 75.9971 153.771 74.9614 153.771 74.2584C153.894 68.9259 158.486 68.5795 161.466 66.8923C162.899 66.0829 163.956 64.9616 163.956 62.8148C163.956 61.5803 162.927 60.4143 160.838 60.3148C161.819 59.0094 162.856 57.752 163.949 56.5426C167.186 57.616 169.497 60.4795 169.497 63.607C169.497 69.9478 161.37 70.2873 159.209 72.9107C158.757 73.4594 159.285 73.6411 160.399 73.6411C162.817 73.6411 165.231 72.9553 167.512 73.2468C168.4 73.3428 169.24 73.4937 169.24 74.0458Z" fill="#269FA2"/>
<path d="M176.05 47.2832L176.304 47.1564C179.486 45.627 182.837 44.476 186.287 43.7271C186.287 44.4815 186.314 45.0988 186.314 45.5137C186.314 48.3841 186.037 49.478 184.672 49.478H176.489C176.088 49.4746 176.03 48.5144 176.05 47.2832Z" fill="#269FA2"/>
<path d="M187.67 65.5442L187.069 65.7123C186.473 65.8803 185.883 66.0552 185.293 66.2644C185.118 66.3193 184.95 66.381 184.775 66.4427C184.6 66.5044 184.34 66.5902 184.127 66.6725L183.548 66.8885C183.355 66.9594 183.163 67.0348 182.971 67.1149C182.93 65.99 182.848 64.8207 182.779 63.6855C182.673 62.2247 182.323 60.5786 180.783 60.5786C178.822 60.5786 177.066 61.3673 177.066 64.9681L176.902 70.1601C176.672 70.3007 176.442 70.4447 176.216 70.5922L175.636 70.9763C175.53 71.0449 175.423 71.1203 175.314 71.1957C175.204 71.2712 175.033 71.3912 174.889 71.4941C174.672 71.6484 174.456 71.8027 174.244 71.9639C173.389 72.5995 172.567 73.2659 171.778 73.9632C171.439 72.9628 171.272 71.9123 171.284 70.8562C171.284 67.8693 171.356 65.6437 171.356 63.7507C171.356 56.9778 176.751 56.0622 180.777 56.0622C184.803 56.0622 186.606 58.0752 187.361 62.3447C187.545 63.4018 187.648 64.4714 187.67 65.5442Z" fill="#269FA2"/>
<path d="M155.866 98.428C156.017 100.05 156.246 102.324 156.246 103.01C156.116 104.152 155.358 104.916 154.34 104.916C154.059 104.916 153.757 104.916 153.417 104.916L153.503 104.69C153.645 104.285 153.789 103.881 153.935 103.476L154.083 103.075C154.237 102.646 154.398 102.221 154.556 101.792C154.789 101.182 155.019 100.575 155.259 99.9678C155.454 99.45 155.66 98.939 155.866 98.428Z" fill="#4EB8B4"/>
<path d="M168.472 77.9244H167.838C168.026 77.7118 168.211 77.4992 168.407 77.29C168.513 77.1665 168.633 77.0431 168.75 76.923C168.956 76.7036 169.158 76.4909 169.371 76.2783C169.371 76.4772 169.391 76.6418 169.391 76.7584C169.384 77.4306 169.631 77.9244 168.472 77.9244Z" fill="#4EB8B4"/>
<path d="M177.656 90.2183C177.656 96.566 169.528 96.9055 167.368 99.5289C166.915 100.071 167.443 100.259 168.561 100.259C169.487 100.244 170.411 100.175 171.328 100.054C170.117 101.519 168.988 103.051 167.947 104.642C166.805 104.618 165.475 104.56 163.832 104.56C161.774 104.56 161.836 104.128 161.836 103.339C161.836 102.608 161.942 101.573 161.942 100.87C162.114 92.9652 172.138 96.0139 172.138 89.4262C172.138 88.147 171.013 86.9228 168.77 86.9228C165.684 86.9228 165.547 90.9556 165.547 91.4975C165.547 92.1113 165.334 92.2965 164.641 92.2965C164.01 92.2965 162.604 92.2348 162.604 92.2348C162.261 92.2348 161.901 92.0496 161.901 91.206C161.901 86.206 163.589 82.7287 169.333 82.7287C173.942 82.7253 177.656 86.2643 177.656 90.2183Z" fill="#4EB8B4"/>
<path d="M181.448 78.288C180.148 78.288 179.562 78.3806 177.731 78.3806C176.405 78.3533 175.121 77.915 174.056 77.1262C172.991 76.3373 172.197 75.237 171.784 73.9773C172.577 73.2778 173.399 72.6113 174.25 71.978C174.462 71.8169 174.679 71.6625 174.895 71.5082C175.039 71.4053 175.176 71.3059 175.32 71.2099C175.464 71.1139 175.536 71.059 175.642 70.9904L176.222 70.6063C176.441 70.4589 176.671 70.3148 176.908 70.1742V70.2943C176.908 72.976 178.941 73.3806 180.796 73.3806C182.854 73.3806 183.097 70.4589 182.984 67.1221C183.176 67.0421 183.368 66.9667 183.56 66.8958L184.14 66.6797C184.353 66.5974 184.569 66.522 184.788 66.45C185.008 66.378 185.131 66.3265 185.306 66.2717C185.896 66.0728 186.486 65.8876 187.082 65.7195L187.682 65.5515C187.83 71.0144 186.403 78.288 181.448 78.288Z" fill="#4EB8B4"/>
<path d="M190.687 83.0616C189.892 82.8362 189.071 82.7208 188.245 82.7187C183.958 82.7187 181.935 84.6562 181.191 87.7255C181.231 87.8326 181.278 87.9369 181.332 88.0376C181.361 88.0875 181.385 88.1403 181.404 88.1953C181.277 88.3222 181.143 88.4422 181.016 88.5691C180.831 88.7406 180.652 88.912 180.471 89.1041C180.414 89.1724 180.341 89.2259 180.258 89.26C180.176 89.294 180.086 89.3076 179.997 89.2995C179.761 89.2858 179.524 89.2858 179.288 89.2995C178.945 89.2995 178.773 89.471 178.777 89.7419C178.78 90.0128 178.945 90.1397 179.284 90.1466C180.015 90.1466 180.015 90.1466 180.028 90.8907C180.028 91.2337 180.162 91.388 180.43 91.3948C180.507 91.3975 180.583 91.3806 180.652 91.3459C180.721 91.3111 180.78 91.2595 180.824 91.1959C180.849 91.156 180.866 91.1114 180.873 91.0648C180.88 91.0182 180.877 90.9706 180.865 90.925C180.846 90.8336 180.834 90.7407 180.831 90.6473C180.831 90.5924 180.831 90.541 180.831 90.4861C180.869 89.8414 181.297 89.4058 181.791 88.9875C181.86 88.9257 181.918 88.8469 181.983 88.7817C182.365 89.0062 182.793 89.1421 183.235 89.1795C183.571 89.1928 183.906 89.1352 184.219 89.0105C184.531 88.8859 184.814 88.6969 185.049 88.4559C185.176 88.3359 185.286 88.209 185.392 88.089C185.644 87.7205 185.985 87.4211 186.382 87.218C186.78 87.015 187.222 86.9148 187.669 86.9265C188.437 86.9034 189.197 87.0933 189.864 87.4751C191.609 86.9305 193.385 86.4896 195.182 86.1549C194.065 84.6568 192.485 83.5694 190.687 83.0616ZM184.034 87.3723C184.028 87.5184 183.964 87.6562 183.857 87.7557C183.749 87.8552 183.607 87.9085 183.461 87.9038C183.163 87.9038 182.96 87.6466 182.94 87.2762C182.931 87.1106 182.931 86.9446 182.94 86.779C182.94 86.5972 182.94 86.4189 182.94 86.2372C182.932 86.1645 182.938 86.091 182.959 86.0209C182.98 85.9508 183.014 85.8856 183.061 85.829C183.107 85.7725 183.164 85.7258 183.229 85.6916C183.293 85.6575 183.364 85.6366 183.437 85.6302C183.509 85.6221 183.582 85.6289 183.652 85.65C183.721 85.6711 183.786 85.7062 183.841 85.753C183.897 85.7999 183.942 85.8575 183.975 85.9225C184.007 85.9874 184.026 86.0583 184.03 86.1309C184.088 86.5426 184.089 86.9602 184.034 87.3723Z" fill="#4EB8B4"/>
<path d="M177.549 103.383C177.549 104.069 177.793 104.539 176.637 104.539C173.732 104.539 171.767 104.662 168.787 104.662H167.933C168.974 103.071 170.103 101.539 171.315 100.074C172.793 99.9025 174.25 99.7105 175.656 99.8785C176.565 99.9711 177.405 100.125 177.405 100.678C177.405 101.535 177.549 102.907 177.549 103.383Z" fill="#047F4D"/>
<path d="M196.479 103.383C196.479 104.069 196.729 104.546 195.574 104.546C192.662 104.546 190.708 104.662 187.724 104.662C186.397 104.662 184.819 104.57 182.752 104.57C180.684 104.57 180.759 104.145 180.759 103.349C180.759 102.619 180.865 101.583 180.865 100.88C180.982 95.5474 185.581 95.201 188.561 93.5138C189.994 92.7045 191.051 91.5831 191.051 89.4363C191.042 89.034 190.928 88.641 190.72 88.2967C190.512 87.9524 190.216 87.6689 189.864 87.4748C191.609 86.9301 193.385 86.4893 195.183 86.1545C196.071 87.3336 196.559 88.766 196.575 90.2422C196.575 96.583 188.451 96.9225 186.287 99.5459C185.835 100.095 186.356 100.276 187.47 100.276C189.891 100.276 192.309 99.5905 194.586 99.882C195.495 99.9677 196.338 100.122 196.338 100.674C196.342 101.535 196.479 102.907 196.479 103.383Z" fill="#047F4D"/>
</svg>
