<?xml version="1.0" encoding="utf-8"?>
<!-- Generator: Adobe Illustrator 23.0.3, SVG Export Plug-In . SVG Version: 6.00 Build 0)  -->
<svg version="1.1" id="Layer_1" xmlns="http://www.w3.org/2000/svg" xmlns:xlink="http://www.w3.org/1999/xlink" x="0px" y="0px"
	 viewBox="0 0 783.93 332.14" style="enable-background:new 0 0 783.93 332.14;" xml:space="preserve">
<style type="text/css">
	.st0{fill:#FFFFFF;}
	.st1{fill:#282043;}
	.st2{fill:url(#SVGID_1_);}
	.st3{fill:#EB8666;}
</style>
<g>
	<g>
		<path class="st1" d="M201.65,280.64c0-6.94-5.62-12.59-12.52-12.59c-6.9,0-12.52,5.65-12.52,12.59c0,6.96,5.62,12.63,12.52,12.63
			C196.04,293.27,201.65,287.61,201.65,280.64z"/>
		<linearGradient id="SVGID_1_" gradientUnits="userSpaceOnUse" x1="144.1468" y1="261.4342" x2="261.1835" y2="110.8681">
			<stop  offset="0" style="stop-color:#282043"/>
			<stop  offset="1" style="stop-color:#EB8666"/>
		</linearGradient>
		<path class="st2" d="M311.09,112.62c-7.3-29.4-21.63-43.69-43.82-43.69h-33.84l0.29,15.43h33.55c10.33,0,21.84,3.8,28.84,31.98
			c7.75,31.16,7.83,53.13,0.26,75.84c-9.35,28.13-16.53,32.88-29.1,32.88H145.44c-6.72,0-12.16,5.44-12.16,12.16v10.33
			c0,6.72,5.45,12.16,12.16,12.16h64.85c2.3,0,4.17,1.87,4.17,4.17v14.64c0,13.53-10.72,23.5-31.87,29.62
			c-13.25,3.85-25.51,5.72-37.46,5.72c-11.95,0-23.67-1.81-36.91-5.7c-9.97-2.93-18.14-7.12-23.64-12.1
			c-5.64-5.12-8.27-10.7-8.27-17.54v-71.88H60.89v71.88c0,20.51,15.27,36.29,42.99,44.44c14.49,4.26,27.98,6.33,41.26,6.33
			c13.43,0,27.09-2.07,41.76-6.33c28.13-8.15,43-23.52,43-44.45v-30.08c0-2.3-1.87-4.17-4.17-4.17h-77.02v-3.78h118.56
			c27.07,0,36.14-20.55,43.75-43.45C319.47,171.68,319.5,146.43,311.09,112.62z"/>
		<path class="st3" d="M207.18,3.29c-2.01-0.33-4.03-0.63-6.06-0.92c-3.57,29.7-15.82,56.72-34.16,78.45v5.36h-4.74
			c-18.74,20.18-42.97,35.16-70.32,42.61c15.35,14.35,33.24,26.01,52.96,34.18h62.33c22.42,0,40.32-18.46,40.32-40.98V45.21
			C247.5,23.36,229.06,6.94,207.18,3.29z"/>
		<path class="st1" d="M126.63,3.29C92.51,9.32,86.31,21.94,86.31,45.21v26.13c0,2.54,2.06,4.61,4.61,4.61h76.03v4.89
			c18.34-21.73,30.59-48.75,34.16-78.45C189.17,0.71,176.95-0.05,165.17,0C151.38,0.07,138.22,1.24,126.63,3.29z M121.56,55.45
			c-8.36,0-15.13-6.85-15.13-15.32c0-8.5,6.77-15.41,15.13-15.41c8.33,0,15.13,6.91,15.13,15.41
			C136.69,48.61,129.89,55.45,121.56,55.45z"/>
		<path class="st1" d="M2.79,195.64c0.79,4.24,1.75,8.67,2.89,13.38c5.73,23.87,19.42,40.88,42.86,40.88h27.73v-36.84
			c0-26.62,23.03-50.1,50.38-50.1h18.21c-19.72-8.17-37.61-19.83-52.96-34.18c-9.89,2.69-20.19,4.4-30.78,5.01
			C49.17,160.39,28.52,182.21,2.79,195.64z"/>
		<path class="st1" d="M162.21,86.19h-75.9H72.3c-0.69,16.91-4.62,32.99-11.19,47.62c10.59-0.61,20.88-2.32,30.78-5.01
			C119.24,121.35,143.47,106.36,162.21,86.19z"/>
		<path class="st3" d="M61.12,133.81c-2.86,0.17-5.74,0.27-8.64,0.27c-16.3,0-31.98-2.64-46.68-7.46c-0.04,0.16-0.09,0.3-0.13,0.46
			c-6.32,26.2-7.48,44-2.89,68.57C28.52,182.21,49.17,160.39,61.12,133.81z"/>
		<path class="st3" d="M56.05,86.19c-23.3,0-43.7,13.93-50.25,40.43c14.69,4.82,30.37,7.46,46.68,7.46c2.9,0,5.78-0.1,8.64-0.27
			c6.57-14.63,10.5-30.71,11.19-47.62H58.4H56.05z"/>
	</g>
	<g>
		<path class="st1" d="M344.73,69.87h8.74v-54.7h-8.74V7.53h32.66c4.27,0,8.54,0.3,12.01,1.89c7.25,3.08,11.91,10.52,11.91,19.85
			c0,9.83-5.16,17.77-13.2,20.55c-3.28,1.19-6.65,1.49-10.52,1.49h-14.2v18.56h8.84v7.74h-27.5V69.87z M376.4,43.17
			c3.18,0,5.66-0.5,7.84-1.39c4.47-1.98,7.05-6.45,7.05-12.51c0-5.66-2.28-9.83-6.25-11.91c-2.19-1.19-5.16-1.69-8.54-1.69h-13.1
			v27.5H376.4z"/>
		<path class="st1" d="M422.76,69.87h8.83V47.93l-19.65-32.76h-6.65V7.53h24.12v7.64h-7.35l13,22.04c0.79,1.49,1.39,2.98,1.39,2.98
			h0.2c0,0,0.6-1.49,1.49-2.98l13-22.04h-7.25V7.53h23.92v7.64h-6.65l-19.65,32.76v21.94h8.84v7.74h-27.6V69.87z"/>
		<path class="st1" d="M487.98,69.87h8.84v-54.2h-16.48v10.92h-8.64V7.53h60.16v19.06h-8.64V15.67h-16.48v54.2h8.83v7.74h-27.6
			V69.87z"/>
		<path class="st1" d="M540,69.87h8.74v-54.7H540V7.53h27.5v7.64h-8.84V38.5h36.33V15.18h-8.84V7.53h27.5v7.64h-8.73v54.7h8.73v7.74
			h-27.5v-7.74h8.84V46.64h-36.33v23.23h8.84v7.74H540V69.87z"/>
		<path class="st1" d="M659.02,6.34c20.25,0,36.03,15.59,36.03,35.74c0,20.65-15.78,36.73-36.03,36.73
			c-20.35,0-36.03-16.08-36.03-36.73C622.99,21.93,638.67,6.34,659.02,6.34z M659.02,69.97c14.2,0,25.71-12.11,25.71-27.89
			c0-15.29-11.51-27-25.71-27c-14.29,0-25.81,11.71-25.81,27C633.21,57.86,644.73,69.97,659.02,69.97z"/>
		<path class="st1" d="M704.39,69.87h8.74v-54.7h-8.74V7.53h18.56l34.45,50.23c1.19,1.99,2.38,5.06,2.38,5.06h0.3
			c0,0-0.5-3.47-0.5-5.66V15.18h-8.93V7.53h27.69v7.64h-8.84v62.44h-9.73l-34.44-50.23c-1.29-1.98-2.38-5.06-2.38-5.06h-0.3
			c0,0,0.5,3.48,0.4,5.66v41.89h9.03v7.74h-27.7V69.87z"/>
		<path class="st1" d="M344.73,172.26h8.74v-54.7h-8.74v-7.64h31.87c5.06,0,8.84,0.5,12.31,2.08c5.56,2.48,9.63,8.24,9.63,15.78
			c0,6.85-3.38,12.31-8.83,15.09v0.2c7.54,2.18,11.61,9.03,11.61,16.97c0,9.23-5.66,16.18-12.9,18.66
			c-3.38,1.09-6.65,1.29-10.52,1.29h-33.16V172.26z M378.09,139.4c6.35,0,10.33-4.37,10.33-10.72c0-4.07-1.59-7.54-4.57-9.23
			c-1.99-0.99-4.27-1.39-7.25-1.39h-13.2v21.34H378.09z M378.29,171.86c1.98,0,4.37-0.2,6.25-0.99c4.07-1.69,6.65-6.05,6.65-11.31
			c0-7.25-4.76-12.01-12.11-12.01h-15.69v24.32H378.29z"/>
		<path class="st1" d="M427.82,172.26h8.74v-54.7h-8.74v-7.64h30.38c4.96,0,9.03,0.2,12.91,1.49c7.35,2.48,12.21,8.64,12.21,18.17
			c0,10.13-5.56,17.37-14.49,19.65v0.2c0,0,1.79,0.99,2.98,3.28l9.93,17.27c1.09,1.89,2.38,2.28,4.86,2.28h2.08V180h-5.96
			c-5.96,0-7.35-1.09-9.73-5.26l-10.82-19.16c-1.79-2.98-3.08-3.87-7.35-3.87h-8.34v20.55h8.64V180h-27.3V172.26z M460.58,143.57
			c7.64,0,12.71-4.96,12.71-13.2c0-5.46-2.18-9.23-6.55-11.02c-2.28-0.89-5.26-1.29-8.64-1.29h-11.62v25.51H460.58z"/>
		<path class="st1" d="M508.93,172.26h6.75l22.33-62.34h11.22l22.33,62.34h6.75V180h-24.32v-7.74h7.45l-5.46-15.59h-24.82
			l-5.46,15.59h7.54V180h-24.32V172.26z M553.5,148.73l-8.54-24.32c-0.99-2.88-1.19-5.36-1.19-5.36h-0.3c0,0-0.3,2.48-1.19,5.36
			l-8.64,24.32H553.5z"/>
		<path class="st1" d="M609.39,158.96v5.16c0,5.16,6.65,8.24,14,8.24c8.04,0,13.9-3.77,13.9-10.72c0-8.14-8.24-10.82-16.88-14.2
			c-9.23-3.47-18.66-7.44-18.66-19.85c0-13.2,10.62-18.86,22.43-18.86c10.52,0,21.24,3.97,21.24,11.61v8.24h-9.23v-4.87
			c0-4.07-6.25-6.25-12.01-6.25c-6.85,0-12.31,3.18-12.31,9.63c0,7.45,7.05,9.93,14.89,12.91c10.32,3.87,20.55,7.84,20.55,20.85
			c0,13.4-10.92,20.35-23.92,20.35c-10.92,0-23.13-4.87-23.13-14.89v-7.35H609.39z"/>
		<path class="st1" d="M673.22,172.26h8.74v-54.7h-8.74v-7.64h27.5v7.64h-8.84v54.7h8.84V180h-27.5V172.26z"/>
		<path class="st1" d="M726.82,172.26h8.73v-54.2h-8.73v-8.14h27.5v8.14h-8.84v53.8h24.42v-11.32h8.74V180h-51.82V172.26z"/>
	</g>
	<path class="st3" d="M344.71,315.76c0-44.23,50.29-50.46,50.29-66.18c0-8.36-5.57-8.68-8.68-8.68c-9.18,0-16.38,12.61-16.38,12.61
		l-23.92-16.38c0,0,10.98-26.7,43.58-26.7c18.18,0,41.94,9.83,41.94,37.03c0,33.09-47.51,41.61-48.66,55.37h22.93v-13.27h27.69
		v40.63h-87.15C345.37,324.94,344.71,320.19,344.71,315.76z"/>
	<path class="st3" d="M463.49,271.04c0-33.75,11.14-60.62,45.54-60.62s45.54,26.87,45.54,60.62c0,33.58-11.14,61.11-45.54,61.11
		S463.49,304.62,463.49,271.04z M519.02,271.04c0-16.87-2.29-30.14-9.99-30.14s-9.99,13.27-9.99,30.14s2.29,30.63,9.99,30.63
		S519.02,287.91,519.02,271.04z"/>
	<path class="st3" d="M585.04,302.82h24.57v-38.83c0-4.75,0.16-9.83,0.16-9.83h-0.33c0,0-1.64,3.6-4.26,5.9l-5.24,4.42l-19.66-21.13
		l33.42-30.96h29.65v90.43h24.9v27.36h-83.22V302.82z"/>
	<path class="st3" d="M783.93,265.63c0,35.88-20.97,66.51-59.3,66.51c-15.89,0-26.37-5.24-26.37-5.24l8.52-28.51
		c0,0,7.54,3.28,17.04,3.28c9.5,0,17.86-3.93,21.95-13.6h-0.33c0,0-6.55,2.46-14.74,2.46c-24.9,0-39.15-20.97-39.15-39.15
		c0-19.82,15.73-40.96,43.25-40.96C759.19,210.42,783.93,226.81,783.93,265.63z M735.11,240.89c-5.57,0-9.83,4.09-9.83,9.67
		c0,4.91,3.6,13.27,16.38,13.27c5.57,0,7.7-1.96,7.7-6.72C749.36,248.27,742.15,240.89,735.11,240.89z"/>
</g>
</svg>
